<svg id="Layer_1" enable-background="new 0 0 512.001 512.001" height="512" viewBox="0 0 512.001 512.001" width="512" xmlns="http://www.w3.org/2000/svg"><g><g clip-rule="evenodd" fill-rule="evenodd"><g><path d="m256.001 151.001-55.136-141-24.084 20.302.083 7.741.414 38.428 22.515 11.426-12.126 32.789z" fill="#88df8e"/><path d="m200.865 10.001 55.136 141 55.136-141c-16.764 8.745-35.779 13.349-55.136 13.349s-38.373-4.604-55.136-13.349z" fill="#e3eaef"/><path d="m311.136 10.001-55.135 141 68.334-30.314-12.127-32.789 22.516-11.426.414-38.429.083-7.74z" fill="#88df8e"/><g fill="#fff"><path d="m324.335 120.687-68.334 30.314v340.999l21.105 10 118.892-20v-213.036l80.003-50.002c-21.803-47.731-41.228-90.255-63.031-137.986-5.353-11.717-10.845-17.211-22.379-23.011l-55.453-19.922-.414 38.428-22.515 11.426z"/><path d="m256.001 492v-340.999l-68.334-30.314 12.126-32.79-22.515-11.426-.414-38.428-55.453 19.921c-11.534 5.8-17.027 11.294-22.38 23.011-21.803 47.731-41.228 90.255-63.031 137.986l80.003 50.002v213.037l118.892 20.001z"/></g></g><g fill="#88df8e"><path d="m364.609 139.096c8.45 14.635 27.164 19.65 41.8 11.2 2.286-1.32 4.337-2.889 6.138-4.655 8.926 11.377 23.646 17.308 37.552 16.618-12.2-26.708-24.25-53.087-37.129-81.283-5.353-11.717-10.845-17.211-22.379-23.011l-4.98-1.789c-6.959 11.524-7.922 25.131-2.701 38.131-2.43.678-4.815 1.669-7.101 2.989-14.636 8.449-19.65 27.164-11.2 41.8z"/><path d="m198.17 249.982c12.136-7.007 16.294-22.526 9.287-34.662s-22.525-16.294-34.661-9.287c-1.896 1.094-3.596 2.396-5.09 3.86-10.979-13.994-30.859-18.15-46.709-8.999-1.468.848-2.852 1.784-4.154 2.795-.277-.191-.557-.376-.838-.559v64.991 24.676 40.049c11.115 7.323 25.857 8.245 38.169 1.137 12.543-7.242 19.131-20.835 18.049-34.372 1.527-.622 3.03-1.353 4.498-2.2 15.85-9.151 22.191-28.446 15.561-44.951 2.015-.561 3.992-1.383 5.888-2.478z"/><path d="m304.544 308.871c-7.007 12.136-2.849 27.655 9.287 34.662 1.896 1.094 3.873 1.916 5.888 2.478-6.63 16.505-.289 35.799 15.561 44.951 1.468.848 2.971 1.578 4.498 2.2-1.081 13.537 5.506 27.13 18.049 34.372 12.312 7.108 27.055 6.186 38.169-1.137v-40.049-24.676-64.991c-.281.183-.561.368-.838.559-1.302-1.011-2.687-1.948-4.155-2.795-15.85-9.151-35.73-4.995-46.709 8.999-1.494-1.464-3.195-2.766-5.09-3.86-12.134-7.007-27.653-2.849-34.66 9.287z"/><path d="m207.457 456.599c-7.007-12.136-22.525-16.294-34.661-9.287-1.896 1.094-3.596 2.396-5.09 3.86-10.979-13.994-30.859-18.15-46.709-8.999-1.468.848-2.852 1.784-4.154 2.795-.277-.191-.557-.376-.838-.559v37.591l76.278 12.832v-1.093c2.015-.562 3.993-1.384 5.888-2.478 12.135-7.007 16.293-22.526 9.286-34.662z"/></g></g><g><path d="m485.096 214.808-63.03-137.988c-6.228-13.63-13.289-20.902-26.982-27.79-.36-.181-.732-.341-1.112-.477l-48.758-17.516.007-.626c.032-2.986-1.271-5.83-3.554-7.754l-24.085-20.302c-2.467-2.079-5.78-2.841-8.908-2.046-1.022.26-1.974.689-2.845 1.236-.284.111-.567.232-.845.371-14.935 7.48-31.872 11.434-48.982 11.434s-34.048-3.954-48.982-11.434c-.278-.139-.561-.26-.845-.371-.871-.547-1.823-.977-2.845-1.236-3.125-.796-6.442-.033-8.908 2.046l-24.084 20.302c-2.283 1.924-3.586 4.768-3.554 7.753l.007.627-48.758 17.516c-.38.136-.751.296-1.112.477-13.695 6.888-20.756 14.16-26.982 27.79l-63.034 137.987c-2.087 4.567-.463 9.974 3.796 12.635l75.303 47.064v207.494c0 4.883 3.526 9.051 8.341 9.861l118.892 20c2.018.34 4.092.052 5.941-.824l16.823-7.972 16.823 7.972c1.345.637 2.808.963 4.282.963.554 0 1.108-.046 1.659-.139l118.892-20c4.814-.81 8.341-4.979 8.341-9.861v-207.493l75.303-47.065c4.257-2.661 5.882-8.067 3.795-12.634zm-81.221-129.677 30.291 66.313c-5.998-2.175-11.356-5.853-15.101-10.626-1.755-2.237-4.38-3.621-7.217-3.806-2.843-.185-5.619.847-7.65 2.837-1.231 1.207-2.624 2.262-4.139 3.137-9.836 5.678-22.459 2.297-28.14-7.541-2.751-4.765-3.482-10.316-2.058-15.631s4.832-9.757 9.598-12.508c1.516-.875 3.125-1.553 4.785-2.016 2.739-.764 5.023-2.657 6.282-5.207s1.372-5.515.313-8.153c-3.114-7.756-3.394-15.705-.924-22.977 6.921 4.033 10.256 8.072 13.96 16.178zm-101.045 6.236 8.87 23.985-37.532 16.65 41.198-105.358 9.805 8.266-.381 35.389-17.106 8.681c-4.529 2.298-6.616 7.624-4.854 12.387zm-9.433-63.459-37.396 95.634-37.396-95.634c12.04 3.584 24.684 5.442 37.396 5.442s25.356-1.858 37.396-5.442zm-96.762-1.263 41.198 105.357-37.532-16.65 8.871-23.986c1.762-4.762-.325-10.088-4.854-12.386l-17.106-8.682-.382-35.389zm-69.739 182.91c11.275-6.508 25.823-3.708 33.841 6.511 1.756 2.237 4.38 3.622 7.218 3.807 2.815.184 5.618-.847 7.65-2.837.918-.9 1.958-1.688 3.091-2.342 3.556-2.053 7.698-2.6 11.666-1.536 3.966 1.063 7.281 3.607 9.335 7.163 4.238 7.341 1.714 16.763-5.627 21.001-1.133.654-2.335 1.161-3.572 1.505-2.739.763-5.024 2.657-6.283 5.207s-1.373 5.515-.313 8.154c4.842 12.055-.008 26.054-11.283 32.563-1.041.601-2.142 1.139-3.27 1.599-4.036 1.644-6.543 5.713-6.195 10.058.806 10.082-4.329 19.862-13.081 24.915-7.481 4.319-16.385 4.672-24.069 1.156v-20.945c.607.112 1.214.188 1.813.188 4.415 0 8.456-2.947 9.653-7.415 1.43-5.334-1.736-10.818-7.071-12.247l-4.396-1.178v-10.468l30.909-17.845c4.783-2.761 6.422-8.877 3.66-13.66s-8.876-6.421-13.66-3.66l-20.909 12.072v-41.208c.298-.188.591-.384.893-.558zm-.892 241.836c.297-.188.591-.383.893-.558 11.275-6.508 25.823-3.709 33.841 6.511 1.756 2.237 4.38 3.622 7.218 3.807 2.815.179 5.618-.847 7.65-2.837.917-.899 1.957-1.687 3.091-2.342 3.556-2.054 7.698-2.6 11.666-1.536 3.966 1.063 7.281 3.607 9.335 7.163 4.238 7.341 1.714 16.763-5.625 21-1.134.654-2.337 1.162-3.576 1.507-.194.054-.379.125-.567.19l-63.925-10.754v-22.151zm216.348-67.49c-1.128-.459-2.229-.998-3.271-1.599-11.274-6.509-16.124-20.508-11.282-32.563 1.06-2.639.946-5.604-.312-8.153-1.259-2.55-3.543-4.443-6.282-5.207-1.238-.345-2.442-.853-3.574-1.505-7.341-4.239-9.865-13.66-5.627-21.001 4.239-7.342 13.662-9.868 21-5.628 1.134.654 2.174 1.442 3.092 2.343 2.031 1.99 4.823 3.018 7.65 2.837 2.838-.185 5.462-1.569 7.218-3.807 8.019-10.22 22.568-13.02 33.842-6.51.403.233.798.488 1.191.744v41.194l-21.207-12.246c-4.785-2.763-10.899-1.123-13.66 3.66-2.762 4.783-1.123 10.899 3.66 13.66l31.208 18.018v10.215l-4.694 1.258c-5.335 1.429-8.501 6.913-7.071 12.247 1.197 4.468 5.237 7.415 9.653 7.415.698 0 1.406-.094 2.112-.247v20.874c-7.751 3.662-16.792 3.349-24.369-1.025-8.751-5.053-13.886-14.833-13.08-24.916.346-4.345-2.161-8.414-6.197-10.058zm63.646-132.979v-61.96c0-5.523-4.478-10-10-10s-10 4.477-10 10v92.917c-15.088-4.882-31.856-1.662-44.036 8.466-16.73-8.929-37.726-3.018-47.277 13.528-9.553 16.545-4.178 37.681 11.923 47.708-3.186 18.553 5.312 37.851 21.979 47.753 1.101 15.159 9.673 29.143 23.042 36.862 7.228 4.173 15.209 6.248 23.174 6.248 3.763 0 7.521-.468 11.195-1.392v32.492l-107.45 18.076-12.547-5.945v-119.174c0-5.523-4.478-10-10-10s-10 4.477-10 10v119.172l-12.547 5.945-17.5-2.944c7.068-10.819 7.955-25.139 1.063-37.075-4.725-8.183-12.353-14.036-21.479-16.482-8.739-2.34-17.854-1.29-25.798 2.954-12.098-10.06-28.727-13.303-43.736-8.56v-81.939c3.579.874 7.235 1.319 10.896 1.319 7.964 0 15.947-2.075 23.174-6.248 13.37-7.719 21.942-21.704 23.042-36.862 16.669-9.903 25.165-29.2 21.979-47.753 16.099-10.025 21.476-31.162 11.923-47.708-4.725-8.183-12.353-14.036-21.479-16.482-8.736-2.34-17.854-1.289-25.798 2.954-12.109-10.068-28.754-13.307-43.772-8.549-.369-5.187-4.683-9.283-9.964-9.283-5.522 0-10 4.477-10 10v61.96l-57.26-35.788 59.384-130.002c4.247-9.296 8.006-13.243 17.25-17.965l41.639-14.958.262 24.372c.04 3.728 2.149 7.123 5.474 8.81l14.572 7.395-9.037 24.434c-1.831 4.95.5 10.47 5.324 12.61l62.389 27.677v118.996c0 5.523 4.478 10 10 10s10-4.477 10-10v-118.996l62.389-27.677c4.824-2.14 7.155-7.66 5.324-12.61l-9.036-24.434 14.571-7.395c3.324-1.687 5.434-5.083 5.474-8.81l.263-24.373 26.27 9.438c-3.291 9.054-3.93 18.729-1.855 28.375-9.361 5.425-16.057 14.165-18.858 24.618-2.807 10.475-1.366 21.417 4.057 30.808 11.193 19.388 36.074 26.052 55.46 14.861.023-.014.048-.028.071-.042 9.309 8.016 21.534 12.835 34.162 13.347l18.967 41.522z"/><path d="m256.001 311.501h-.007c-5.522 0-9.996 4.477-9.996 10s4.48 10 10.003 10 10-4.477 10-10-4.478-10-10-10z"/></g></g></svg>