<svg height="512" viewBox="0 0 512 512" width="512" xmlns="http://www.w3.org/2000/svg"><g id="filled_outline" data-name="filled outline"><path d="m277.657 258.343a8 8 0 0 0 -11.314 0l-2.343 2.343v-52.686a8 8 0 0 0 -16 0v52.686l-2.343-2.343a8 8 0 0 0 -11.314 11.314l16 16a8 8 0 0 0 11.314 0l16-16a8 8 0 0 0 0-11.314z" fill="#bce1ff"/><path d="m296 64h-80l-24 56v73a15 15 0 0 0 15 15h90a15 15 0 0 0 15-15v-97zm-32 72h-32v-16l8-16h24z" fill="#e4e4e2"/><path d="m268 40h24a4 4 0 0 1 4 4v20a0 0 0 0 1 0 0h-32a0 0 0 0 1 0 0v-20a4 4 0 0 1 4-4z" fill="#01afea"/><path d="m148 208h-40a12 12 0 0 1 -12-12v-84l16-48h32l16 48v84a12 12 0 0 1 -12 12z" fill="#bce1ff"/><path d="m160 112v8h-64v-8l2.67-8h58.66z" fill="#bce1ff"/><path d="m118 40h20a6 6 0 0 1 6 6v18a0 0 0 0 1 0 0h-32a0 0 0 0 1 0 0v-18a6 6 0 0 1 6-6z" fill="#76afd4"/><path d="m96 168h64v16h-64z" fill="#8ed2ff"/><path d="m96 136h64v16h-64z" fill="#8ed2ff"/><path d="m160 112v8h-64v-8l2.67-8h58.66z" fill="#8ed2ff"/><path d="m390 208h-28a18 18 0 0 1 -18-18v-80.334a24 24 0 0 1 2.534-10.734l9.666-19.332a35.993 35.993 0 0 0 3.8-16.1v-15.5h32v15.5a35.993 35.993 0 0 0 3.8 16.1l9.665 19.331a24 24 0 0 1 2.535 10.735v80.334a18 18 0 0 1 -18 18z" fill="#01afea"/><path d="m400 48h-48v-17a7 7 0 0 1 7-7h34a7 7 0 0 1 7 7z" fill="#e4e4e2"/><path d="m296 488h-80v-32l-8-16-8-72h112l-8 72-8 16z" fill="#06c7a6"/><path d="m304 336h-96l6.864-27.455a6 6 0 0 1 5.821-4.545h70.63a6 6 0 0 1 5.821 4.545z" fill="#06c7a6"/><g fill="#05b093"><path d="m192 336h128v32h-128z"/><circle cx="256" cy="416" r="16"/><rect height="32" rx="12" width="24" x="192" y="456"/><rect height="32" rx="12" width="24" x="296" y="456"/></g><path d="m136 488h-80v-32l-8-16-8-72h112l-8 72-8 16z" fill="#01afea"/><path d="m144 336h-96l6.864-27.455a6 6 0 0 1 5.821-4.545h70.63a6 6 0 0 1 5.821 4.545z" fill="#01afea"/><path d="m32 336h128v32h-128z" fill="#0198cb"/><rect fill="#0198cb" height="32" rx="12" width="24" x="32" y="456"/><rect fill="#0198cb" height="32" rx="12" width="24" x="136" y="456"/><path d="m456 488h-80v-32l-8-16-8-72h112l-8 72-8 16z" fill="#fbb540"/><path d="m464 336h-96l6.864-27.455a6 6 0 0 1 5.821-4.545h70.63a6 6 0 0 1 5.821 4.545z" fill="#fbb540"/><path d="m352 336h128v32h-128z" fill="#ea9d2d"/><rect fill="#ea9d2d" height="32" rx="12" width="24" x="352" y="456"/><rect fill="#ea9d2d" height="32" rx="12" width="24" x="456" y="456"/><path d="m400 400h32v32h-32z" fill="#ea9d2d"/><path d="m96 400-16 32h32z" fill="#0198cb"/><path d="m120 225.754-25.94 6.485a8 8 0 0 0 -6.06 7.761v20.686l-2.343-2.343a8 8 0 0 0 -11.314 11.314l16 16a8 8 0 0 0 11.314 0l16-16a8 8 0 0 0 -11.314-11.314l-2.343 2.343v-14.44l25.94-6.485a8 8 0 0 0 6.06-7.761v-24h-16z" fill="#8ed2ff"/><path d="m437.657 258.343a8 8 0 0 0 -11.314 0l-2.343 2.343v-20.686a8 8 0 0 0 -6.431-7.845l-33.569-6.714v-17.441h-16v24a8 8 0 0 0 6.431 7.845l33.569 6.714v14.127l-2.343-2.343a8 8 0 0 0 -11.314 11.314l16 16a8 8 0 0 0 11.314 0l16-16a8 8 0 0 0 0-11.314z" fill="#8ed2ff"/><path d="m360 48h32v8h-32z" fill="#0198cb"/><path d="m264 96h-24a8 8 0 0 0 -7.155 4.422l-8 16a7.994 7.994 0 0 0 -.845 3.578v16a8 8 0 0 0 8 8h32a8 8 0 0 0 8-8v-32a8 8 0 0 0 -8-8zm-8 32h-16v-6.111l4.944-9.889h11.056z"/><path d="m292 32h-24a12.013 12.013 0 0 0 -12 12v12h-40a8 8 0 0 0 -7.354 4.849l-24 56a8.013 8.013 0 0 0 -.646 3.151v73a23.025 23.025 0 0 0 23 23h41v44.686l-2.343-2.343a8 8 0 0 0 -11.314 11.314l16 16a8 8 0 0 0 11.314 0l16-16a8 8 0 0 0 -11.314-11.314l-2.343 2.343v-44.686h33a23.025 23.025 0 0 0 23-23v-97a7.994 7.994 0 0 0 -.845-3.578l-15.155-30.311v-18.111a12.013 12.013 0 0 0 -12-12zm-20 16h16v8h-16zm32 145a7.009 7.009 0 0 1 -7 7h-90a7.009 7.009 0 0 1 -7-7v-71.358l21.275-49.642h69.781l12.944 25.889z"/><path d="m152 62.7v-16.7a14.015 14.015 0 0 0 -14-14h-20a14.015 14.015 0 0 0 -14 14v16.7l-15.59 46.77a8.032 8.032 0 0 0 -.41 2.53v84a20.023 20.023 0 0 0 20 20h12v9.754l-25.94 6.485a8 8 0 0 0 -6.06 7.761v20.686l-2.343-2.343a8 8 0 0 0 -11.314 11.314l16 16a8 8 0 0 0 11.314 0l16-16a8 8 0 0 0 -11.314-11.314l-2.343 2.343v-14.44l25.94-6.485a8 8 0 0 0 6.06-7.761v-16h12a20.023 20.023 0 0 0 20-20v-84a8.032 8.032 0 0 0 -.41-2.53zm-32-14.7h16v8h-16zm-2.234 24h20.468l10.666 32h-41.8zm34.234 124a4 4 0 0 1 -4 4h-40a4 4 0 0 1 -4-4v-12h48zm0-28h-48v-16h48zm0-32h-48v-16h48z"/><path d="m368 216v16a8 8 0 0 0 6.431 7.845l33.569 6.714v14.127l-2.343-2.343a8 8 0 0 0 -11.314 11.314l16 16a8 8 0 0 0 11.314 0l16-16a8 8 0 0 0 -11.314-11.314l-2.343 2.343v-20.686a8 8 0 0 0 -6.431-7.845l-33.569-6.714v-9.441h6a26.029 26.029 0 0 0 26-26v-80.334a32.149 32.149 0 0 0 -3.379-14.311l-9.665-19.332a28.132 28.132 0 0 1 -2.956-12.523v-7.5a8 8 0 0 0 8-8v-17a15.017 15.017 0 0 0 -15-15h-34a15.017 15.017 0 0 0 -15 15v17a8 8 0 0 0 8 8v7.5a28.139 28.139 0 0 1 -2.956 12.522l-9.664 19.33a32.144 32.144 0 0 0 -3.38 14.314v80.334a26.029 26.029 0 0 0 26 26zm-8-184h32v8h-32zm-8 158v-80.334a16.084 16.084 0 0 1 1.689-7.156l9.665-19.33a44.208 44.208 0 0 0 4.646-19.68v-7.5h16v7.5a44.2 44.2 0 0 0 4.646 19.677l9.666 19.333a16.082 16.082 0 0 1 1.688 7.156v80.334a10.011 10.011 0 0 1 -10 10h-28a10.011 10.011 0 0 1 -10-10z"/><path d="m320 328h-9.754l-5.346-21.394a13.976 13.976 0 0 0 -13.585-10.606h-70.63a13.975 13.975 0 0 0 -13.585 10.6l-5.35 21.4h-9.75a8 8 0 0 0 -8 8v32a8 8 0 0 0 8 8h.84l7.209 64.884a8.008 8.008 0 0 0 .8 2.694l2.234 4.469a20.007 20.007 0 0 0 -19.083 19.953v8a19.968 19.968 0 0 0 27.423 18.556 7.963 7.963 0 0 0 4.577 1.444h80a7.963 7.963 0 0 0 4.577-1.444 19.968 19.968 0 0 0 27.423-18.556v-8a20.007 20.007 0 0 0 -19.079-19.953l2.234-4.469a8.008 8.008 0 0 0 .8-2.694l7.205-64.884h.84a8 8 0 0 0 8-8v-32a8 8 0 0 0 -8-8zm-97.753-16h67.506l4 16h-75.507zm-14.247 164a4 4 0 0 1 -8 0v-8a4 4 0 0 1 8 0zm88.206-38.3-7.361 14.724a7.994 7.994 0 0 0 -.845 3.576v24h-64v-24a7.994 7.994 0 0 0 -.845-3.578l-7.361-14.722-6.856-61.7h94.124zm15.794 30.3v8a4 4 0 0 1 -8 0v-8a4 4 0 0 1 8 0zm0-108h-112v-16h112z"/><path d="m256 440a24 24 0 1 0 -24-24 24.028 24.028 0 0 0 24 24zm0-32a8 8 0 1 1 -8 8 8.009 8.009 0 0 1 8-8z"/><path d="m160 328h-9.754l-5.346-21.394a13.976 13.976 0 0 0 -13.585-10.606h-70.63a13.975 13.975 0 0 0 -13.585 10.6l-5.346 21.4h-9.754a8 8 0 0 0 -8 8v32a8 8 0 0 0 8 8h.84l7.209 64.884a8.008 8.008 0 0 0 .8 2.694l2.234 4.469a20.007 20.007 0 0 0 -19.083 19.953v8a19.968 19.968 0 0 0 27.423 18.556 7.963 7.963 0 0 0 4.577 1.444h80a7.963 7.963 0 0 0 4.577-1.444 19.968 19.968 0 0 0 27.423-18.556v-8a20.007 20.007 0 0 0 -19.079-19.953l2.234-4.469a8.008 8.008 0 0 0 .8-2.694l7.205-64.884h.84a8 8 0 0 0 8-8v-32a8 8 0 0 0 -8-8zm-97.753-16h67.506l4 16h-75.507zm-14.247 164a4 4 0 0 1 -8 0v-8a4 4 0 0 1 8 0zm88.206-38.3-7.361 14.724a7.994 7.994 0 0 0 -.845 3.576v24h-64v-24a7.994 7.994 0 0 0 -.845-3.578l-7.361-14.722-6.856-61.7h94.124zm15.794 30.3v8a4 4 0 0 1 -8 0v-8a4 4 0 0 1 8 0zm0-108h-112v-16h112z"/><path d="m480 328h-9.754l-5.346-21.394a13.976 13.976 0 0 0 -13.585-10.606h-70.63a13.975 13.975 0 0 0 -13.585 10.6l-5.35 21.4h-9.75a8 8 0 0 0 -8 8v32a8 8 0 0 0 8 8h.84l7.209 64.884a8.008 8.008 0 0 0 .8 2.694l2.234 4.469a20.007 20.007 0 0 0 -19.083 19.953v8a19.968 19.968 0 0 0 27.423 18.556 7.963 7.963 0 0 0 4.577 1.444h80a7.963 7.963 0 0 0 4.577-1.444 19.968 19.968 0 0 0 27.423-18.556v-8a20.007 20.007 0 0 0 -19.079-19.953l2.234-4.469a8.008 8.008 0 0 0 .8-2.694l7.205-64.884h.84a8 8 0 0 0 8-8v-32a8 8 0 0 0 -8-8zm-97.753-16h67.506l4 16h-75.507zm-14.247 164a4 4 0 0 1 -8 0v-8a4 4 0 0 1 8 0zm88.206-38.3-7.361 14.724a7.994 7.994 0 0 0 -.845 3.576v24h-64v-24a7.994 7.994 0 0 0 -.845-3.578l-7.361-14.722-6.856-61.7h94.124zm15.794 30.3v8a4 4 0 0 1 -8 0v-8a4 4 0 0 1 8 0zm0-108h-112v-16h112z"/><path d="m400 440h32a8 8 0 0 0 8-8v-32a8 8 0 0 0 -8-8h-32a8 8 0 0 0 -8 8v32a8 8 0 0 0 8 8zm8-32h16v16h-16z"/><path d="m80 440h32a8 8 0 0 0 7.155-11.578l-16-32a8 8 0 0 0 -14.31 0l-16 32a8 8 0 0 0 7.155 11.578zm16-22.111 3.056 6.111h-6.112z"/></g></svg>