<?xml version="1.0"?>
<svg xmlns="http://www.w3.org/2000/svg" viewBox="0 0 512 512" width="512" height="512"><g id="Filled_outline" data-name="Filled outline"><path d="M327.311,481.2A23.885,23.885,0,0,0,344,488h14.627a16,16,0,0,1-11.314-4.687A16,16,0,0,0,327.311,481.2Z" style="fill:#48add9"/><path d="M442.53,296.41a49.3,49.3,0,0,0,0,31.18l2.94,8.82A49.186,49.186,0,0,1,448,352V464a24.006,24.006,0,0,1-24,24H406.63a15.927,15.927,0,0,1-6.13-1.22,16.279,16.279,0,0,1-4.48-2.82c-.25-.21-.49-.43-.71-.65s-.45-.44-.69-.65c-.4-.35-.81-.68-1.24-.99-.22-.17-.45-.32-.68-.48a16.03,16.03,0,0,0-20.01,2.12A16.008,16.008,0,0,1,361.37,488H344a24.006,24.006,0,0,1-24-24V352a49.186,49.186,0,0,1,2.53-15.59l2.94-8.82a49.3,49.3,0,0,0,0-31.18l-2.94-8.82A49.186,49.186,0,0,1,320,272V238.76a96.028,96.028,0,0,1,17.88-55.79L360,152V112h48v40l22.12,30.97A95.934,95.934,0,0,1,448,238.76V272a49.186,49.186,0,0,1-2.53,15.59l-.14.41Z" style="fill:#348fd9"/><path d="M448,238.76V272a49.186,49.186,0,0,1-2.53,15.59l-.14.41-2.8,8.41a49.3,49.3,0,0,0,0,31.18l2.94,8.82A49.186,49.186,0,0,1,448,352V464a24.006,24.006,0,0,1-24,24H408a20.08,20.08,0,0,1-11.98-4.04c-.25-.21-.49-.43-.71-.65s-.45-.44-.69-.65c-.4-.35-.81-.68-1.24-.99-.23-.16-.46-.32-.69-.47l.01-.01A23.888,23.888,0,0,0,400,464V352a49.186,49.186,0,0,0-2.53-15.59l-2.94-8.82a49.3,49.3,0,0,1,0-31.18l2.8-8.41.14-.41A49.186,49.186,0,0,0,400,272V238.76A95.581,95.581,0,0,0,398.86,224a95.927,95.927,0,0,0-16.74-41.03L360,152V112h48v40l22.12,30.97A95.934,95.934,0,0,1,448,238.76Z" style="fill:#3086cd"/><path d="M368,312l-8,16,8,16v16l-8,16,8,16v16l-8,16,8,16v32a16.463,16.463,0,0,1-11.44,16H344a24.006,24.006,0,0,1-24-24V352a49.186,49.186,0,0,1,2.53-15.59l2.94-8.82a49.3,49.3,0,0,0,0-31.18l-2.94-8.82A49.186,49.186,0,0,1,320,272V238.76A95.917,95.917,0,0,1,322.74,216H336v32l23.16,11.58A16,16,0,0,1,368,273.89Z" style="fill:#3086cd"/><path d="M272,192V434a54,54,0,0,1-86.4,43.2,29.34,29.34,0,0,0-35.2,0,54.006,54.006,0,0,1-85.94-36.11A55.305,55.305,0,0,1,64,434V192a104,104,0,0,1,72-98.93V24h64V93.07A103.9,103.9,0,0,1,272,192Z" style="fill:#4db7e5"/><path d="M272,192V434a54,54,0,0,1-86.4,43.2,29.34,29.34,0,0,0-35.2,0,54.006,54.006,0,0,1-85.94-36.11c68.5-47.19,141.6-134.74,196.85-295.04A103.456,103.456,0,0,1,272,192Z" style="fill:#48add9"/><rect x="64" y="208" width="208" height="176" style="fill:#f35244"/><rect x="136" y="72" width="64" height="24" style="fill:#48add9"/><path d="M272,208V384H129.37c38.06-41.59,75.39-98.46,108.25-176Z" style="fill:#ea4a3b"/><path d="M344,328l8,16v16l-8,16,8,16v16l-8,16,8,16v32a16,16,0,0,1-16,16H256a16,16,0,0,1-16-16V440l8-16-8-16V392l8-16-8-16V344l8-16-8-16V273.89a16,16,0,0,1,8.84-14.31L272,248V216h48v32l23.16,11.58A16,16,0,0,1,352,273.89V312Z" style="fill:#60d1e0"/><path d="M352,312l-8,16,8,16v16l-8,16,8,16v16l-8,16,8,16v32a16,16,0,0,1-16,16H304a16,16,0,0,0,16-16V440l-8-16,8-16V392l-8-16,8-16V344l-8-16,8-16V273.89a16,16,0,0,0-8.84-14.31L288,248V216h32v32l23.16,11.58A16,16,0,0,1,352,273.89Z" style="fill:#5ac6d4"/><ellipse cx="296" cy="216" rx="24" ry="16" style="fill:#3fb7c7"/><path d="M436.59,178.316,416,149.441V112a8,8,0,0,0-8-8H360a8,8,0,0,0-8,8v37.441l-20.582,28.864A104.056,104.056,0,0,0,325.2,188.1l13.969,7.8a88.008,88.008,0,0,1,5.266-8.3l22.078-30.96A8,8,0,0,0,368,152V120h32v32a8,8,0,0,0,1.488,4.645l22.1,30.992A86.423,86.423,0,0,1,434.4,208H376v16h62.6a89.347,89.347,0,0,1,1.4,14.8V240H376v16h64v16H376v16h60.893l-1.924,5.871a56.835,56.835,0,0,0-.012,36.223l2.895,8.832A41.339,41.339,0,0,1,440,352H376v16h64v16H376v16h64v16H376v16h64v32a16.016,16.016,0,0,1-16,16H406.641a8.022,8.022,0,0,1-5.7-2.375,24.4,24.4,0,0,0-33.876,0l11.313,11.313a8.02,8.02,0,0,1,11.25,0A23.917,23.917,0,0,0,406.641,496H424a32.036,32.036,0,0,0,32-32V352a57.251,57.251,0,0,0-2.957-18.094l-2.895-8.832a40.861,40.861,0,0,1,.012-26.183l2.9-8.844a71.885,71.885,0,0,0,2.211-8.844A61.563,61.563,0,0,0,456,272V238.8a106.361,106.361,0,0,0-2.945-24.692A102.367,102.367,0,0,0,436.59,178.316Z"/><path d="M56,192V434a62.069,62.069,0,0,0,62,62,61.448,61.448,0,0,0,37.215-12.41,21.327,21.327,0,0,1,25.578,0,61.636,61.636,0,0,0,34.91,12.367l.594-15.992a45.625,45.625,0,0,1-25.879-9.16,37.4,37.4,0,0,0-44.828,0A45.545,45.545,0,0,1,118,480a46.054,46.054,0,0,1-46-46V392H216V376H72V216H248V200H72v-8a95.776,95.776,0,0,1,66.465-91.352A7.993,7.993,0,0,0,144,93.039V72h48V93.039a7.993,7.993,0,0,0,5.535,7.609,95.631,95.631,0,0,1,66.184,83.961l15.953-1.218A111.517,111.517,0,0,0,208,87.379V72h16V56H208V24a8,8,0,0,0-8-8H136a8,8,0,0,0-8,8V56H112V72h16V87.379A111.7,111.7,0,0,0,56,192ZM144,32h48V56H144Z"/><path d="M123.57,125.461l8.86,13.32a64.537,64.537,0,0,1,15.871-7.648l-4.922-15.227A80.5,80.5,0,0,0,123.57,125.461Z"/><path d="M104.391,184.879a64.1,64.1,0,0,1,17.386-37.188L110.238,136.6a80.24,80.24,0,0,0-21.754,46.516Z"/><rect x="88" y="232" width="16" height="16"/><rect x="88" y="264" width="16" height="72"/><rect x="264" y="280" width="16" height="24"/><path d="M296,192c-17.945,0-32,10.543-32,24v27.062l-18.7,9.383A23.9,23.9,0,0,0,232,273.922V312a8,8,0,0,0,.844,3.578L239.055,328l-6.211,12.422A8,8,0,0,0,232,344v16a8,8,0,0,0,.844,3.578L239.055,376l-6.211,12.422A8,8,0,0,0,232,392v16a8,8,0,0,0,.844,3.578L239.055,424l-6.211,12.422A8,8,0,0,0,232,440v32a24.037,24.037,0,0,0,24,24h80a25.431,25.431,0,0,0,5.438-.613A23.965,23.965,0,0,0,360,472V440a8,8,0,0,0-.844-3.578L352.945,424l6.211-12.422A8,8,0,0,0,360,408V392a8,8,0,0,0-.844-3.578L352.945,376l6.211-12.422A8,8,0,0,0,360,360V344a8,8,0,0,0-.844-3.578L352.945,328l6.211-12.422A8,8,0,0,0,360,312V273.922a23.884,23.884,0,0,0-13.293-21.469L328,243.062V216C328,202.543,313.945,192,296,192Zm0,16c9.766,0,16,4.738,16,8s-6.234,8-16,8-16-4.738-16-8S286.234,208,296,208Zm43.543,58.758A7.977,7.977,0,0,1,344,273.922v36.191L339.055,320H272v16h67.055L344,345.887v12.226L339.055,368H272v16h67.055L344,393.887v12.226L339.055,416H272v16h67.055L344,441.887V472a8.085,8.085,0,0,1-6.062,7.777A9.369,9.369,0,0,1,336,480H256a8.024,8.024,0,0,1-6.367-3.184A7.866,7.866,0,0,1,248,472V441.887l7.156-14.309a8.008,8.008,0,0,0,0-7.156L248,406.113V393.887l7.156-14.309a8.008,8.008,0,0,0,0-7.156L248,358.113V345.887l7.156-14.309a8.008,8.008,0,0,0,0-7.156L248,310.113V273.922a7.991,7.991,0,0,1,4.465-7.172l23.121-11.6A7.991,7.991,0,0,0,280,248V236.764a41.173,41.173,0,0,0,32,0V248a7.991,7.991,0,0,0,4.414,7.148Z"/></g></svg>
