<svg id="Layer_3" enable-background="new 0 0 64 64" height="512" viewBox="0 0 64 64" width="512" xmlns="http://www.w3.org/2000/svg"><path d="m27 2v14c0 3.148 1.482 6.111 4 8 2.518 1.889 4 4.852 4 8v26c0 2.209-1.791 4-4 4h-16c-2.209 0-4-1.791-4-4v-26c0-3.148 1.482-6.111 4-8 2.518-1.889 4-4.852 4-8v-14z" fill="#db9b7c"/><path d="m31.902 24.765c-.284-.271-.584-.527-.902-.765-2.518-1.889-4-4.852-4-8v-13.449c-.106-.185-.214-.369-.323-.551h-7.677v14c0 3.148-1.482 6.111-4 8s-4 4.852-4 8v22.384c11.272-2.788 19.934-14.815 20.902-29.619z" fill="#efbe9a"/><path d="m15 34h16v20h-16z" fill="#f5b953"/><path d="m19 8h8v10h-8z" fill="#59ac98"/><path d="m15 52.967c6.966-3.262 12.522-10.205 15.219-18.967h-15.219z" fill="#f9d18b"/><path d="m53 44h-14l1 18h12z" fill="#c7e2fc"/><path d="m39.778 58 .222 4h12l.222-4z" fill="#8892a0"/><path d="m39.659 55.862c5.286-.802 9.341-5.352 9.341-10.862 0-.338-.021-.67-.05-1h-9.95z" fill="#ebf7fe"/><path d="m31 63h-16c-2.757 0-5-2.243-5-5v-26c0-3.443 1.645-6.733 4.399-8.8 2.255-1.691 3.601-4.383 3.601-7.2v-14c0-.553.447-1 1-1h8c.553 0 1 .447 1 1v14c0 2.817 1.346 5.509 3.601 7.2 2.754 2.067 4.399 5.357 4.399 8.8v26c0 2.757-2.243 5-5 5zm-11-60v13c0 3.443-1.645 6.733-4.399 8.8-2.255 1.691-3.601 4.383-3.601 7.2v26c0 1.654 1.346 3 3 3h16c1.654 0 3-1.346 3-3v-26c0-2.817-1.346-5.509-3.601-7.2-2.754-2.067-4.399-5.357-4.399-8.8v-13z"/><path d="m19 7h8v2h-8z"/><path d="m19 17h8v2h-8z"/><path d="m31 55h-16c-.553 0-1-.447-1-1v-20c0-.553.447-1 1-1h16c.553 0 1 .447 1 1v20c0 .553-.447 1-1 1zm-15-2h14v-18h-14z"/><path d="m52 63h-12c-.53 0-.969-.415-.998-.944l-1-18c-.016-.274.083-.543.271-.743.19-.2.453-.313.727-.313h14c.274 0 .537.113.727.312.188.2.287.469.271.743l-1 18c-.029.53-.468.945-.998.945zm-11.054-2h10.107l.89-16h-11.886z"/><path d="m40 57h12v2h-12z"/></svg>